<svg width="68" height="27" viewBox="0 0 68 27" fill="none" xmlns="http://www.w3.org/2000/svg">
<path fill-rule="evenodd" clip-rule="evenodd" d="M9.21663 2.99019C11.0576 1.0756 13.5544 0 16.1579 0C19.6378 0 22.6946 1.88302 24.438 4.72273L20.6164 8.69708C20.0045 6.74443 18.2397 5.33333 16.1579 5.33333C14.9145 5.33333 13.722 5.84703 12.8428 6.76142L6.83474 13.0098C5.95551 13.9242 5.46157 15.1644 5.46157 16.4575C5.46157 19.1504 7.56059 21.3333 10.1499 21.3333C11.3933 21.3333 12.5858 20.8196 13.465 19.9052L29.7295 2.99019C31.5705 1.0756 34.0673 0 36.6709 0C40.1506 0 43.2075 1.88297 44.9508 4.72263L41.1293 8.69695C40.5175 6.74436 38.7526 5.33333 36.6709 5.33333C35.4274 5.33333 34.2349 5.84703 33.3557 6.76142L21.247 19.3544L17.0912 23.6764C15.2502 25.591 12.7534 26.6667 10.1499 26.6667C4.72835 26.6667 0.333344 22.0959 0.333344 16.4575C0.333344 13.7499 1.36758 11.1532 3.20854 9.23858L9.21663 2.99019ZM30.6637 21.3333C31.9072 21.3333 33.0996 20.8196 33.9789 19.9052L50.2434 2.99019C52.0843 1.0756 54.5812 0 57.1847 0C62.6063 0 67.0013 4.57079 67.0013 10.2092C67.0013 12.9168 65.967 15.5135 64.126 17.4281L58.118 23.6764C56.277 25.591 53.7802 26.6667 51.1766 26.6667C47.697 26.6667 44.6402 24.7838 42.8969 21.9443L46.7183 17.97C47.3302 19.9224 49.095 21.3333 51.1766 21.3333C52.4201 21.3333 53.6126 20.8196 54.4918 19.9052L60.4999 13.6569C61.3791 12.7425 61.873 11.5023 61.873 10.2092C61.873 7.5163 59.774 5.33333 57.1847 5.33333C55.9413 5.33333 54.7488 5.84703 53.8696 6.76142L37.605 23.6764C35.7641 25.591 33.2673 26.6667 30.6637 26.6667C27.1842 26.6667 24.1276 24.7839 22.3841 21.9446L26.2055 17.9704C26.8176 19.9227 28.5823 21.3333 30.6637 21.3333Z" fill="#394149"/>
</svg>
